<svg id="Layer_1" data-name="Layer 1" xmlns="http://www.w3.org/2000/svg" viewBox="0 0 23.98 23.98"><defs><style>.cls-1,.cls-2{fill:#4c76be;}.cls-2{fill-rule:evenodd;}</style></defs><title>fb</title><path class="cls-1" d="M79.91,77.9a12,12,0,1,1-11.4-8.28A12,12,0,0,1,79.91,77.9Zm-11.4-7.2a10.91,10.91,0,1,0,10.37,7.54A10.91,10.91,0,0,0,68.51,70.69Z" transform="translate(-56.52 -69.61)"/><path class="cls-2" d="M70.14,78.15c0.33,0,.65,0,1,0h0.13V76.46l-0.54-.05c-0.33,0-.67,0-1,0a2.46,2.46,0,0,0-1.41.44,2.12,2.12,0,0,0-.85,1.41,4.94,4.94,0,0,0-.06.73c0,0.38,0,.76,0,1.14v0.14H65.77v1.89h1.61v4.75h2V82.14h1.6l0.25-1.9H69.33s0-.94,0-1.34A0.7,0.7,0,0,1,70.14,78.15Z" transform="translate(-56.52 -69.61)"/></svg>