<svg id="Layer_1" data-name="Layer 1" xmlns="http://www.w3.org/2000/svg" viewBox="0 0 23.98 23.98"><defs><style>.cls-1,.cls-2{fill:#00c7ff;}.cls-2{fill-rule:evenodd;}</style></defs><title>tw</title><path class="cls-1" d="M117.65,77.9a12,12,0,1,1-11.4-8.28A12,12,0,0,1,117.65,77.9Zm-11.4-7.2a10.91,10.91,0,1,0,10.37,7.54A10.91,10.91,0,0,0,106.25,70.69Z" transform="translate(-94.26 -69.61)"/><path class="cls-2" d="M104.47,84.2a2.33,2.33,0,0,1-2.16-1.61,2.3,2.3,0,0,0,1,0l0,0a2.32,2.32,0,0,1-1.51-1.07,2.26,2.26,0,0,1-.34-1.24,2.3,2.3,0,0,0,1,.28,2.34,2.34,0,0,1-1-1.41,2.3,2.3,0,0,1,.25-1.68,6.65,6.65,0,0,0,4.79,2.43c0-.09,0-0.17,0-0.25a2.32,2.32,0,0,1,4-1.92,0.12,0.12,0,0,0,.12,0A4.71,4.71,0,0,0,112,77.2l0,0h0a2.38,2.38,0,0,1-1,1.26,4.47,4.47,0,0,0,1.29-.35h0l-0.27.35a4.57,4.57,0,0,1-.84.8,0.08,0.08,0,0,0,0,.07,6.43,6.43,0,0,1,0,1,6.84,6.84,0,0,1-.6,2.07,6.67,6.67,0,0,1-1.26,1.83A6.22,6.22,0,0,1,106.11,86a7,7,0,0,1-1.29.15,6.57,6.57,0,0,1-3.72-1l-0.05,0a4.71,4.71,0,0,0,2.32-.32A4.65,4.65,0,0,0,104.47,84.2Z" transform="translate(-94.26 -69.61)"/></svg>