<?xml version="1.0" encoding="utf-8"?>
<!-- Generator: Adobe Illustrator 19.2.1, SVG Export Plug-In . SVG Version: 6.00 Build 0)  -->
<svg version="1.1" id="Capa_1" xmlns="http://www.w3.org/2000/svg" xmlns:xlink="http://www.w3.org/1999/xlink" x="0px" y="0px"
	 viewBox="0 0 405.5 405.5" style="enable-background:new 0 0 405.5 405.5;" xml:space="preserve">
<style type="text/css">
	.st0{fill:#D3D3D3;}
</style>
<g>
	<path class="st0" d="M341.3,74.1c-0.1-5-2.2-9.9-5.7-13.4l-55-55C277,2.1,272,0,266.9,0s-10.2,2.1-13.8,5.7L69.8,189
		c-3.6,3.6-5.7,8.7-5.7,13.8s2.1,10.2,5.7,13.8l183.3,183.3c3.6,3.6,8.7,5.7,13.8,5.7s10.2-2.1,13.8-5.7l55-55
		c3.6-3.6,5.7-8.7,5.7-13.7s-2.1-10.1-5.7-13.7L221.1,202.7L335.6,88.2C339.3,84.5,341.4,79.3,341.3,74.1L341.3,74.1z"/>
</g>
</svg>
